# xmcd
#
# Track frame offsets:
# 150
# 12370
# 29985
# 42975
# 58867
# 78622
# 89275
# 103140
# 120150
# 136905
# 152475
# 166767
# 180097
# 195767
# 209287
# 226540
#
# Disc length: 3170 seconds
#
#
# Revision: 0
# Processed by: cddbd v1.5.2PL0 Copyright (c) Steve Scherf et al.
# Submitted via: FreeRIP 2.944 
#
DISCID=bd0c6010
DTITLE=Dik Dik - DikDik  16 Successi
DYEAR=1995
DGENRE=Blues
TTITLE0=Sognando la California
TTITLE1=L'Isola di Wight
TTITLE2=29 Settembre
TTITLE3=Sapore di Sale
TTITLE4=Storia di Periferia
TTITLE5=Io mi Fermo Qui
TTITLE6=Rubero'
TTITLE7=Giornale di Bordo
TTITLE8=Senza Luce
TTITLE9=Viaggio di un Poeta
TTITLE10=Dolce di Giorno
TTITLE11=Io che non Vivo
TTITLE12=Vendo Casa
TTITLE13=Eleonora Credi
TTITLE14=Dieci Ragazze
TTITLE15=Diana
EXTD=
EXTT0=
EXTT1=
EXTT2=
EXTT3=
EXTT4=
EXTT5=
EXTT6=
EXTT7=
EXTT8=
EXTT9=
EXTT10=
EXTT11=
EXTT12=
EXTT13=
EXTT14=
EXTT15=
PLAYORDER=
